<svg width="32" height="32" viewBox="0 0 32 32" fill="none" xmlns="http://www.w3.org/2000/svg">
  <!-- Background circle -->
  <circle cx="16" cy="16" r="16" fill="#8B5CF6"/>
  
  <!-- Message bubble -->
  <path d="M8 10C8 8.89543 8.89543 8 10 8H22C23.1046 8 24 8.89543 24 10V18C24 19.1046 23.1046 20 22 20H12L8 24V10Z" fill="white"/>
  
  <!-- Simple grid pattern -->
  <rect x="10" y="10" width="2" height="2" fill="#8B5CF6"/>
  <rect x="13" y="10" width="2" height="2" fill="#6B7280"/>
  <rect x="16" y="10" width="2" height="2" fill="#6B7280"/>
  <rect x="19" y="10" width="2" height="2" fill="#8B5CF6"/>
  
  <rect x="10" y="13" width="2" height="2" fill="#6B7280"/>
  <rect x="13" y="13" width="2" height="2" fill="#8B5CF6"/>
  <rect x="16" y="13" width="2" height="2" fill="#8B5CF6"/>
  <rect x="19" y="13" width="2" height="2" fill="#6B7280"/>
  
  <rect x="10" y="16" width="2" height="2" fill="#8B5CF6"/>
  <rect x="13" y="16" width="2" height="2" fill="#6B7280"/>
  <rect x="16" y="16" width="2" height="2" fill="#6B7280"/>
  <rect x="19" y="16" width="2" height="2" fill="#8B5CF6"/>
  
  <!-- Message tail -->
  <path d="M12 20L8 24L12 20Z" fill="white"/>
</svg>
